<svg width="1134" height="360" viewBox="0 0 1134 360" fill="none" xmlns="http://www.w3.org/2000/svg">
<rect width="1134" height="360" fill="url(#paint0_linear)"/>
<mask id="mask0" mask-type="alpha" maskUnits="userSpaceOnUse" x="0" y="0" width="491" height="360">
<rect width="491" height="360" fill="#DDDEDF"/>
</mask>
<g mask="url(#mask0)">
<path d="M22.0754 584.103C29.1007 477.647 -85.4888 428.07 -107.607 319.592C-129.725 211.114 71.6557 37.1272 -55.3708 -140.752C184.228 32.5105 -3.43726 134.923 117.371 279.128C74.8407 265.837 37.5841 241.645 10.2098 209.545C-57.0178 289.086 175.388 398.318 22.0754 584.134" fill="#FFB800"/>
<path d="M-997.674 173.606C-942.355 60.2209 -847.086 -33.718 -726.511 -93.7725C-693.133 -171.11 -704.125 -224.157 -352.86 -346.093C-344.087 -392.803 -345.801 -448.446 -330.877 -448.446C-287.834 -438.218 -250.738 -413.676 -227.111 -379.798C-211.75 -381.246 -198.102 -382.816 -188.489 -383.932C-177.945 -432.768 -159.556 -479.971 -133.9 -524.063C-108.521 -559.579 -59.6469 -563.109 3.24463 -516.791C79.6071 -469.422 147.46 -411.858 204.457 -346.093C280.054 -315.587 398.745 -276.42 501.199 -163.748C459.86 -186.524 413.23 -200.443 364.929 -204.423C448.426 -138.582 503.787 -30.0132 461.535 128.796C445.333 -19.5728 323.718 -81.5214 249.297 -128.926C289.634 -3.61035 114.842 -46.7603 61.6317 -140.785C69.1223 -138.233 77.1208 -137.103 85.1223 -137.466C93.1239 -137.83 100.954 -139.679 108.12 -142.897C102.472 -334.264 2.23596 -444.161 -42.5712 -477.836C-99.7147 -520.08 -130.538 -417.818 -149.833 -340.45C-152.679 -327.799 -160.509 -316.492 -171.886 -308.6C-183.264 -300.709 -197.427 -296.762 -211.783 -297.481C-204.092 -310.588 -198.631 -324.654 -195.581 -339.213C-283.851 -333.178 -383.819 -286.166 -444.794 -261.483C-599.956 -198.599 -638.981 -166.916 -673.368 -60.9121C-796.395 -14.5035 -938.446 113.316 -997.741 173.515" fill="#FFB800"/>
<path d="M283.552 534.046C303.418 607.069 277.905 808.273 222.039 888.899L355.056 898.208C248.63 975.324 123.559 1028.99 -10.1316 1054.89C60.6926 972.574 117.298 855.587 110.273 815.937C33.3646 866.087 -117.831 888.869 -152.587 872.394C-11.4092 757.7 -33.09 636.428 -115.612 627.135C-198.134 617.841 -294.001 731.689 -286.538 887.33C-355.85 859.177 -580.558 898.616 -601.231 738.177C-625.537 702.829 -635.621 661.073 -629.802 619.863C-427.615 723.965 -513.767 490.051 -391.985 467.48C-405.228 434.62 -507.179 359.606 -644.29 482.9C-650.852 525.877 -648.906 569.557 -638.542 611.927C-688.726 600.773 -732.758 573.768 -762.577 535.856C-829.469 530.304 -894.511 513.255 -957.739 361.627C-1000.23 338.405 -1034.62 304.952 -1057 265.068C-1051.73 234.799 -1034.79 207.151 -1009.13 186.946C-1009.13 186.946 -1023.22 219.836 -1014.88 233.838C-907.621 156.892 -893.973 231.363 -839.048 220.832C-837.737 279.16 -904.931 319.051 -900.125 375.719C-860.561 468.325 -834.107 478.162 -756.795 488.784C-664.122 447.354 -587.55 352.484 -474.204 351.247C-382.405 350.312 -266.807 390.293 -248.252 504.203C-235.008 585.855 -429.296 702.842 -505.868 679.759C-631.08 800.759 -421.43 841.164 -351.581 822.787C-301.866 615.819 -178.806 556.857 -82.0991 586.609C25.1626 619.651 39.6836 741.526 -33.7961 810.355C8.15234 801.688 46.6327 782.819 77.424 755.817C108.215 728.815 130.128 694.723 140.761 657.279C160.617 685.172 171.815 717.319 173.198 750.398C235.249 669.741 214.98 492.736 165.299 425.326C209.458 428.932 251.043 445.57 283.552 472.64C311.283 341.773 217.669 178.829 175.416 151.672C217.768 148.841 260.146 156.845 297.636 174.756C283.552 96.8146 205.803 46.4832 205.803 -13.2627C236.93 42.3794 403.519 57.7685 394.343 262.353C370.714 244.707 342.639 232.515 312.561 226.837C364.209 339.566 372.571 464.525 336.326 581.993C324.208 561.807 305.892 545.166 283.552 534.046Z" fill="#FFB800"/>
</g>
<defs>
<linearGradient id="paint0_linear" x1="472.013" y1="58" x2="-6.81737" y2="348.774" gradientUnits="userSpaceOnUse">
<stop stop-color="#FEC42E"/>
<stop offset="1" stop-color="#FFB800"/>
</linearGradient>
</defs>
</svg>
